<?xml version="1.0" encoding="UTF-8"?>
<!DOCTYPE svg PUBLIC "-//W3C//DTD SVG 1.1//EN" "http://www.w3.org/Graphics/SVG/1.1/DTD/svg11.dtd">
<!-- Creator: CorelDRAW 2020 (64-Bit) -->
<svg xmlns="http://www.w3.org/2000/svg" xml:space="preserve" width="254mm" height="347.133mm" version="1.1" style="shape-rendering:geometricPrecision; text-rendering:geometricPrecision; image-rendering:optimizeQuality; fill-rule:evenodd; clip-rule:evenodd"
viewBox="0 0 25399.98 34713.32"
 xmlns:xlink="http://www.w3.org/1999/xlink"
 xmlns:xodm="http://www.corel.com/coreldraw/odm/2003">
 <defs>
  <style type="text/css">
   <![CDATA[
    .fil0 {fill:black}
   ]]>
  </style>
 </defs>
 <g id="Capa_x0020_1">
  <metadata id="CorelCorpID_0Corel-Layer"/>
  <path class="fil0" d="M8733.74 32434.75l50.68 -228.1c-439.13,-440.95 -781.99,-686.76 -1166.29,-1210.53 -1230.57,-1677.33 -1701.99,-3349.83 -1147.59,-5516.14l2702.8 -6668.67c1767.11,1362.25 1917.02,3063.46 2386.47,4592.5 812.47,-821.45 1628.58,-3296.82 2003.11,-4650.3 615.05,-2222.8 468.31,-3689.57 408.49,-5995.15 4191.96,3486.81 7536.14,9311.86 5234.51,15422.65 -617.5,1639.37 -2045.85,3763.73 -3177.86,4250.26l64.28 268.82c7683.55,-1552.4 8938.16,-9947.94 5993.49,-16725.09 -1595.14,-3671.03 -4720.03,-7295.66 -7502.53,-10219.09l-3994.33 -3741.56c-268.71,608.72 -435.49,1580.71 -649.17,2257.23 -2840.45,8992.32 -10552.19,15137.07 -7331.24,22795.79 459.65,1092.6 1599.29,2609.23 2440.43,3285.87 997.84,802.55 2204.06,1481.37 3684.75,2081.51z"/>
 </g>
</svg>
