<?xml version="1.0" encoding="UTF-8"?>
<!DOCTYPE svg PUBLIC "-//W3C//DTD SVG 1.1//EN" "http://www.w3.org/Graphics/SVG/1.1/DTD/svg11.dtd">
<!-- Creator: CorelDRAW 2020 (64-Bit) -->
<svg xmlns="http://www.w3.org/2000/svg" xml:space="preserve" width="254mm" height="169.333mm" version="1.1" style="shape-rendering:geometricPrecision; text-rendering:geometricPrecision; image-rendering:optimizeQuality; fill-rule:evenodd; clip-rule:evenodd"
viewBox="0 0 25399.98 16933.32"
 xmlns:xlink="http://www.w3.org/1999/xlink"
 xmlns:xodm="http://www.corel.com/coreldraw/odm/2003">
 <defs>
  <style type="text/css">
   <![CDATA[
    .fil0 {fill:black}
    .fil1 {fill:black;fill-rule:nonzero}
   ]]>
  </style>
 </defs>
 <g id="Capa_x0020_1">
  <metadata id="CorelCorpID_0Corel-Layer"/>
  <g id="_1467763382192">
   <path class="fil0" d="M11845.88 8524.18l10.93 -49.19c-94.7,-95.08 -168.63,-148.09 -251.5,-261.04 -265.37,-361.7 -367.02,-722.36 -247.47,-1189.51l582.84 -1438.04c381.06,293.76 413.38,660.61 514.62,990.33 175.2,-177.13 351.19,-710.93 431.95,-1002.79 132.63,-479.33 100.99,-795.63 88.09,-1292.81 903.96,751.9 1625.11,2008.03 1128.78,3325.77 -133.16,353.52 -441.17,811.62 -685.28,916.53l13.86 57.97c1656.9,-334.76 1927.44,-2145.19 1292.45,-3606.63 -343.98,-791.63 -1017.84,-1573.25 -1617.86,-2203.66l-861.35 -806.84c-57.94,131.27 -93.91,340.87 -139.98,486.76 -612.52,1939.12 -2275.5,3264.18 -1580.93,4915.72 99.12,235.61 344.88,562.66 526.26,708.57 215.18,173.07 475.29,319.45 794.59,448.86z"/>
   <path class="fil1" d="M1589.1 11105.31c165.21,0 298.84,-5.16 400.89,-15.48 102.06,-10.33 182.99,-31.63 242.79,-63.89 59.82,-32.27 105.48,-79.38 136.98,-141.33 31.51,-61.96 60.79,-145.85 87.84,-251.69l143.27 0 -151.56 1134.52 -143.27 0c-1.69,-103.26 -11.31,-185.86 -28.84,-247.81 -17.55,-61.96 -52.55,-109.07 -105.03,-141.33 -52.48,-32.27 -126.53,-52.92 -222.12,-61.96 -95.59,-9.03 -224.71,-13.55 -387.33,-13.55l-106.55 797.65c-11.03,82.6 -9.37,152.3 4.98,209.09 14.35,56.79 45.02,102.61 91.99,137.46 46.97,34.85 112.11,59.37 195.39,73.57 83.29,14.2 186.89,21.3 310.79,21.3 147.14,0 273.07,-10.33 377.8,-30.98 104.72,-20.65 194.09,-56.79 268.11,-108.42 74.01,-51.63 137.44,-120.68 190.3,-207.16 52.85,-86.47 102.27,-195.54 148.25,-327.19l154.89 0 -180.41 886.71 -2625.27 0 20.69 -154.88c85.53,-2.58 156.27,-10.33 212.2,-23.24 55.92,-12.9 100.16,-34.84 132.69,-65.82 32.54,-30.98 57.76,-74.86 75.67,-131.65 17.91,-56.79 32.9,-130.36 44.97,-220.71l238.97 -1788.9c12.07,-90.35 17.29,-163.27 15.67,-218.77 -1.62,-55.5 -13.18,-99.39 -34.68,-131.65 -21.51,-32.27 -55.36,-54.21 -101.57,-65.83 -46.2,-11.62 -107.68,-20.01 -184.43,-25.17l20.69 -154.88 2447.15 0 -74.28 758.93 -166.49 0c-1,-108.42 -13.55,-198.13 -37.62,-269.11 -24.08,-70.99 -62.96,-127.78 -116.64,-170.37 -53.68,-42.6 -126.51,-72.28 -218.49,-89.06 -91.98,-16.78 -206.38,-25.17 -343.19,-25.17l-437.54 0c-67.12,0 -109.54,8.39 -127.27,25.17 -17.73,16.78 -30.73,56.14 -39.01,118.1l-131.38 983.5z"/>
   <path id="1" class="fil1" d="M4294.91 12154.65c-13.45,100.67 -19.54,180.05 -18.26,238.13 1.27,58.08 14.04,102.61 38.29,133.59 24.27,30.97 62.89,50.98 115.9,60.01 53,9.04 124.68,13.56 215.03,13.56l-20.69 154.88 -1293.28 0 20.69 -154.88c78.13,-5.17 141.12,-12.91 188.96,-23.24 47.85,-10.32 85.46,-30.97 112.83,-61.95 27.36,-30.98 48.15,-75.5 62.37,-133.59 14.21,-58.08 27.87,-136.16 40.97,-234.26l63.11 -472.39c21.38,-160.05 34.57,-287.82 39.58,-383.34 5.02,-95.51 -1.93,-169.08 -20.85,-220.7 -18.92,-51.63 -51.13,-85.84 -96.65,-102.61 -45.52,-16.78 -106.98,-25.17 -184.43,-25.17l18.1 -135.53 793.56 -143.26 2.46 445.29 15.49 0c87.98,-136.82 194.1,-245.24 318.37,-325.26 124.27,-80.02 249.65,-120.03 376.14,-120.03 98.1,0 174.84,24.52 230.24,73.57 55.4,49.04 78.1,111 68.1,185.86 -11.03,82.6 -44.22,152.3 -99.56,209.09 -55.35,56.79 -124.32,85.18 -206.92,85.18 -38.72,0 -72.53,-7.74 -101.44,-23.23 -28.91,-15.49 -54.33,-32.91 -76.27,-52.27 -21.94,-19.36 -44.04,-37.43 -66.33,-54.21 -22.28,-16.78 -46.33,-25.17 -72.14,-25.17 -49.05,0 -99.82,32.27 -152.33,96.8 -52.5,64.54 -100.19,151.01 -143.07,259.43 -31,77.44 -59.42,164.57 -85.25,261.37 -25.84,96.8 -45.14,192.96 -57.89,288.47l-24.83 185.86z"/>
   <path id="2" class="fil1" d="M6223.98 12119.8c-13.79,103.25 -20.94,185.86 -21.48,247.81 -0.54,61.96 8.58,109.71 27.33,143.27 18.75,33.56 49.29,56.14 91.62,67.76 42.33,11.62 100.76,18.72 175.28,21.3l-20.69 154.88 -1219.71 0 20.69 -154.88c72.62,-2.58 132.47,-10.97 179.54,-25.17 47.06,-14.2 85.02,-37.43 113.86,-69.7 28.83,-32.27 51.64,-77.44 68.43,-135.52 16.8,-58.08 31.23,-132.3 43.3,-222.65l63.62 -476.26c20,-149.72 33.88,-272.98 41.65,-369.79 7.77,-96.8 10.2,-163.27 7.28,-199.41 -4.29,-64.53 -27.64,-107.13 -70.05,-127.78 -42.42,-20.65 -122.99,-30.97 -241.74,-30.97l17.58 -131.65 917.98 -147.14 -194.49 1455.9zm-265.05 -2276.78c11.38,-85.19 49.99,-156.82 115.83,-214.9 65.84,-58.09 140.06,-87.13 222.67,-87.13 85.18,0 152.94,29.04 203.26,87.13 50.32,58.08 69.79,129.71 58.41,214.9 -11.03,82.6 -49.47,152.94 -115.31,211.02 -65.84,58.09 -141.36,87.13 -226.54,87.13 -82.61,0 -149.07,-29.04 -199.39,-87.13 -50.32,-58.08 -69.96,-128.42 -58.93,-211.02z"/>
   <path id="3" class="fil1" d="M8629.25 12433.44c-112.58,108.42 -245.76,192.31 -399.53,251.68 -153.78,59.37 -315.86,89.06 -486.23,89.06 -157.47,0 -297.37,-25.17 -419.71,-75.51 -122.35,-50.33 -223.95,-120.67 -304.81,-211.02 -80.87,-90.35 -137.94,-199.42 -171.2,-327.19 -33.27,-127.78 -39.56,-269.11 -18.87,-424 21.38,-160.04 67.97,-305.89 139.76,-437.54 71.8,-131.65 163.03,-244.59 273.72,-338.81 110.67,-94.22 237.87,-167.14 381.58,-218.77 143.71,-51.63 298.17,-77.44 463.38,-77.44 116.16,0 222.39,11.61 318.66,34.85 96.28,23.23 177.16,55.5 242.63,96.8 65.46,41.3 115.15,89.7 149.03,145.2 33.89,55.5 46.52,115.52 37.9,180.05 -10,74.86 -39.22,134.23 -87.67,178.12 -48.46,43.88 -108.82,65.82 -181.1,65.82 -59.37,0 -109.59,-15.48 -150.62,-46.46 -41.04,-30.98 -78.83,-81.32 -113.41,-151.01 -30.45,-61.96 -56.81,-111 -79.09,-147.14 -22.27,-36.14 -43.73,-63.89 -64.38,-83.25 -20.64,-19.36 -42.16,-32.27 -64.53,-38.72 -22.36,-6.46 -50.33,-9.68 -83.88,-9.68 -149.73,0 -275.2,69.7 -376.42,209.09 -101.23,139.39 -168.57,334.29 -202.02,584.68 -35.86,268.47 -13.76,474.98 66.32,619.54 80.07,144.55 213.04,216.83 398.9,216.83 105.84,0 214.34,-20 325.52,-60.01 111.19,-40.02 219.53,-97.45 325.04,-172.31l81.03 147.14z"/>
   <path id="4" class="fil1" d="M10205.12 11651.28c-229.94,98.09 -405.37,189.08 -526.29,272.98 -120.91,83.89 -187.41,171.02 -199.48,261.36 -10,74.86 2.73,134.24 38.17,178.12 35.44,43.88 84.13,65.83 146.08,65.83 61.95,0 121.5,-10.98 178.64,-32.92 57.14,-21.94 107.49,-50.98 151.04,-87.12 43.55,-36.14 79.65,-79.38 108.32,-129.71 28.66,-50.34 46.8,-103.9 54.38,-160.7l49.14 -367.84zm27.41 -205.22l21.73 -162.63c20,-149.72 8.11,-258.78 -35.67,-327.19 -43.79,-68.41 -121.18,-102.61 -232.18,-102.61 -74.86,0 -134.32,20 -178.39,60.02 -44.06,40.01 -89.08,106.48 -135.05,199.41 -31.85,64.53 -71.49,114.87 -118.92,151.01 -47.41,36.14 -108.56,54.21 -183.42,54.21 -72.28,0 -124.85,-21.94 -157.7,-65.83 -32.86,-43.88 -43.95,-105.83 -33.26,-185.86 16.56,-123.9 97.42,-222 242.6,-294.27 145.18,-72.28 354.58,-108.42 628.21,-108.42 289.12,0 488.64,52.27 598.58,156.82 109.94,104.54 148.53,279.43 115.77,524.66l-113.27 847.99c-29.31,219.42 -0.08,329.13 87.68,329.13 49.05,0 96.47,-16.78 142.25,-50.34l43.08 112.29c-44.76,64.53 -107.72,115.52 -188.87,152.95 -81.15,37.43 -169.48,56.14 -264.99,56.14 -118.74,0 -204.26,-36.14 -256.56,-108.42 -52.3,-72.28 -69.66,-174.24 -52.07,-305.89l-19.36 0c-92.79,134.23 -203.21,236.2 -331.26,305.89 -128.06,69.7 -268.24,104.55 -420.54,104.55 -162.63,0 -286.87,-45.82 -372.72,-137.46 -85.85,-91.64 -118.95,-211.03 -99.29,-358.17 15.17,-113.58 79.73,-220.06 193.68,-319.44 113.96,-99.39 294.76,-196.83 542.42,-292.35l577.52 -236.19z"/>
   <path id="5" class="fil1" d="M13883.79 11852.63l-1095.8 0c-157.87,273.62 -243.87,463.35 -258.01,569.19 -10.35,77.44 12.14,126.49 67.46,147.14 55.33,20.65 141.07,30.98 257.23,30.98l-20.69 154.88 -1060.95 0 20.69 -154.88c62.99,-7.75 117.93,-18.07 164.82,-30.98 46.91,-12.91 89.33,-30.98 127.29,-54.21 37.95,-23.23 72.33,-53.56 103.14,-90.99 30.82,-37.43 61.46,-83.25 91.93,-137.46l1359.23 -2551.7 286.53 0 623.36 2261.29c36.62,131.65 68.65,234.91 96.08,309.77 27.43,74.86 59.76,132.29 97.01,172.31 37.25,40.01 82.59,67.76 136.02,83.25 53.43,15.48 123.52,27.1 210.24,34.84l-21.2 158.76 -1463.64 0 21.2 -158.76c124.59,-5.16 215.38,-18.06 272.35,-38.72 56.96,-20.65 89.58,-61.95 97.86,-123.9 4.82,-36.14 2,-82.61 -8.48,-139.4 -10.49,-56.79 -25.7,-126.49 -45.64,-209.09l-58.03 -232.32zm-975.7 -232.33l921.56 0 -288.57 -1173.24 -15.49 0 -617.5 1173.24z"/>
   <path id="6" class="fil1" d="M15337.54 11202.12c-18.4,-74.86 -37.48,-134.88 -57.26,-180.06 -19.78,-45.17 -41.59,-80.02 -65.41,-104.54 -23.84,-24.52 -51.36,-40.66 -82.6,-48.4 -31.23,-7.75 -68.78,-11.62 -112.67,-11.62l20.68 -154.88 1157.76 0 -20.68 154.88c-64.54,0 -115.87,2.58 -153.99,7.75 -38.12,5.16 -67.55,12.9 -88.29,23.23 -20.74,10.32 -34.81,23.88 -42.21,40.65 -7.4,16.78 -12.5,35.5 -15.25,56.15 -4.49,33.56 -3.2,72.28 3.84,116.16 7.05,43.89 16.67,87.77 28.88,131.65l232.33 1014.49 15.49 0 549.32 -1010.62c23.93,-43.88 43.39,-83.24 58.36,-118.09 14.99,-34.85 24.37,-66.47 28.16,-94.87 7.59,-56.79 -6.25,-98.09 -41.52,-123.91 -35.28,-25.81 -101.79,-40.01 -199.53,-42.59l20.68 -154.88 855.73 0 -20.68 154.88c-69.7,0 -132.14,18.07 -187.3,54.21 -55.16,36.14 -118.12,116.16 -188.89,240.07l-943.39 1641.76 -352.36 0 -399.2 -1591.42z"/>
   <path id="7" class="fil1" d="M18584.3 11651.28c-229.94,98.09 -405.37,189.08 -526.29,272.98 -120.91,83.89 -187.41,171.02 -199.48,261.36 -10,74.86 2.73,134.24 38.17,178.12 35.44,43.88 84.13,65.83 146.08,65.83 61.95,0 121.5,-10.98 178.64,-32.92 57.14,-21.94 107.49,-50.98 151.04,-87.12 43.55,-36.14 79.65,-79.38 108.32,-129.71 28.66,-50.34 46.8,-103.9 54.38,-160.7l49.14 -367.84zm27.41 -205.22l21.73 -162.63c20,-149.72 8.11,-258.78 -35.67,-327.19 -43.79,-68.41 -121.18,-102.61 -232.18,-102.61 -74.86,0 -134.32,20 -178.39,60.02 -44.06,40.01 -89.08,106.48 -135.05,199.41 -31.85,64.53 -71.49,114.87 -118.92,151.01 -47.41,36.14 -108.56,54.21 -183.42,54.21 -72.28,0 -124.85,-21.94 -157.7,-65.83 -32.86,-43.88 -43.95,-105.83 -33.26,-185.86 16.56,-123.9 97.42,-222 242.6,-294.27 145.18,-72.28 354.58,-108.42 628.21,-108.42 289.12,0 488.64,52.27 598.58,156.82 109.94,104.54 148.53,279.43 115.77,524.66l-113.27 847.99c-29.31,219.42 -0.08,329.13 87.68,329.13 49.05,0 96.47,-16.78 142.25,-50.34l43.08 112.29c-44.76,64.53 -107.72,115.52 -188.87,152.95 -81.15,37.43 -169.48,56.14 -264.99,56.14 -118.74,0 -204.26,-36.14 -256.56,-108.42 -52.3,-72.28 -69.66,-174.24 -52.07,-305.89l-19.36 0c-92.79,134.23 -203.21,236.2 -331.26,305.89 -128.06,69.7 -268.24,104.55 -420.54,104.55 -162.63,0 -286.87,-45.82 -372.72,-137.46 -85.85,-91.64 -118.95,-211.03 -99.29,-358.17 15.17,-113.58 79.73,-220.06 193.68,-319.44 113.96,-99.39 294.76,-196.83 542.42,-292.35l577.52 -236.19z"/>
   <path id="8" class="fil1" d="M20368.68 12119.8c-13.79,103.25 -20.94,185.86 -21.48,247.81 -0.54,61.96 8.58,109.71 27.32,143.27 18.76,33.56 49.3,56.14 91.63,67.76 42.33,11.62 100.75,18.72 175.27,21.3l-20.69 154.88 -1219.7 0 20.69 -154.88c72.62,-2.58 132.46,-10.97 179.54,-25.17 47.06,-14.2 85.02,-37.43 113.86,-69.7 28.83,-32.27 51.64,-77.44 68.43,-135.52 16.8,-58.08 31.22,-132.3 43.29,-222.65l213.63 -1599.17c20,-149.72 33.88,-272.98 41.65,-369.78 7.77,-96.8 10.19,-163.27 7.28,-199.41 -4.29,-64.54 -27.64,-107.13 -70.05,-127.78 -42.42,-20.65 -123,-30.98 -241.74,-30.98l17.58 -131.65 917.98 -147.14 -344.49 2578.81z"/>
   <path id="9" class="fil1" d="M22251.4 10663.9c154.89,0 297.84,26.46 428.87,79.37 131.05,52.92 242.62,125.85 334.76,218.78 92.13,92.93 159.99,203.28 203.59,331.06 43.59,127.78 55.22,267.82 34.87,420.12 -21.03,157.47 -70.68,302.02 -148.93,433.67 -78.24,131.65 -176.03,245.24 -293.32,340.75 -117.31,95.51 -248.63,170.37 -393.98,224.58 -145.35,54.21 -295.46,81.31 -450.35,81.31 -152.3,0 -293.32,-26.46 -423.06,-79.38 -129.74,-52.92 -239.87,-127.13 -330.36,-222.64 -90.5,-95.51 -156.55,-209.74 -198.18,-342.68 -41.61,-132.94 -51.89,-278.14 -30.86,-435.61 20.35,-152.3 68.82,-292.99 145.43,-422.06 76.63,-129.07 172.76,-240.07 288.44,-332.99 115.66,-92.93 245.36,-165.21 389.06,-216.84 143.71,-51.63 291.72,-77.44 444.02,-77.44zm-30 224.58c-77.44,0 -151.1,20 -220.98,60.01 -69.89,40.02 -132.23,96.16 -187.07,168.44 -54.83,72.28 -101.31,159.4 -139.45,261.37 -38.14,101.96 -65.5,214.9 -82.05,338.8 -17.24,129.07 -20.49,245.23 -9.76,348.49 10.72,103.26 33.85,191.02 69.36,263.3 35.53,72.28 82.24,128.43 140.13,168.44 57.91,40.01 126.87,60.01 206.89,60.01 80.03,0 155.62,-20 226.78,-60.01 71.18,-40.01 134.91,-96.81 191.2,-170.37 56.3,-73.57 104.24,-161.99 143.85,-265.24 39.61,-103.26 67.86,-218.13 84.76,-344.62 16.55,-123.9 18.64,-236.19 6.28,-336.87 -12.37,-100.67 -36.87,-187.79 -73.51,-261.36 -36.63,-73.57 -85.2,-130.36 -145.68,-170.38 -60.47,-40.01 -130.72,-60.01 -210.75,-60.01z"/>
   <path id="10" class="fil1" d="M23586.75 12754.82l-120.04 0 94.13 -704.72 162.63 0c19.06,185.86 64.2,321.38 135.42,406.57 71.23,85.19 172.66,127.78 304.31,127.78 95.52,0 172.41,-20.01 230.67,-60.02 58.27,-40.01 92.05,-94.86 101.36,-164.56 9.66,-72.28 -13.21,-142.62 -68.62,-211.03 -55.39,-68.41 -150.2,-141.33 -284.4,-218.77 -182.05,-105.84 -308.68,-211.03 -379.91,-315.58 -71.22,-104.54 -98.03,-222.64 -80.45,-354.29 11.38,-85.19 38.12,-164.57 80.21,-238.14 42.1,-73.57 94.51,-137.45 157.26,-191.66 62.74,-54.21 134.81,-96.16 216.22,-125.85 81.41,-29.68 167.29,-44.53 257.64,-44.53 80.02,0 157.84,11.62 233.47,34.85 75.63,23.24 140.38,55.5 194.23,96.81l82.11 -92.93 100.67 0 -78.1 584.68 -151.01 0c-39.72,-147.14 -86.89,-252.98 -141.51,-317.51 -54.63,-64.54 -127.11,-96.8 -217.46,-96.8 -72.28,0 -132.3,19.36 -180.07,58.08 -47.76,38.72 -75.95,90.35 -84.57,154.88 -9.66,72.28 12.82,140.69 67.45,205.22 54.62,64.54 150.33,135.52 287.12,212.97 95.68,56.79 177.31,112.29 244.93,166.5 67.62,54.2 120.96,109.06 160.01,164.56 39.05,55.5 65.5,113.58 79.33,174.24 13.84,60.67 16.1,125.85 6.79,195.54 -12.07,90.35 -39.7,171.66 -82.91,243.94 -43.22,72.28 -99.26,134.24 -168.1,185.86 -68.85,51.63 -148.41,91.64 -238.68,120.04 -90.27,28.39 -188.33,42.59 -294.16,42.59 -111,0 -212.27,-14.84 -303.82,-44.53 -91.54,-29.68 -164.5,-72.92 -218.87,-129.71l-103.28 135.52z"/>
   <path class="fil1" d="M2905.06 14768.3c-96.75,69.87 -207.84,96.75 -327.88,96.75 -308.17,0 -535.71,-222.17 -535.71,-519.59 0,-299.21 227.54,-519.59 537.5,-519.59 146.92,0 272.34,43.01 378.05,146.92l82.42 -84.21c-111.09,-120.04 -275.92,-180.96 -465.84,-180.96 -383.42,0 -662.92,270.55 -662.92,637.84 0,367.3 279.5,637.84 661.13,637.84 173.79,0 342.21,-53.75 460.46,-159.46l0 -478.38 -127.21 0 0 422.84z"/>
   <path id="1" class="fil1" d="M4343.78 14972.55l139.75 0 -573.34 -1254.18 -130.79 0 -573.34 1254.18 137.96 0 150.5 -335.04 698.76 0 150.5 335.04zm-800.88 -442.54l301 -673.68 301 673.68 -602 0z"/>
   <path id="2" class="fil1" d="M5037.16 14983.3c320.71,0 467.62,-157.67 467.62,-342.21 0,-456.88 -772.21,-249.04 -772.21,-593.05 0,-125.41 102.13,-227.54 331.46,-227.54 111.09,0 236.5,34.04 344,103.92l44.8 -105.71c-100.34,-69.88 -247.26,-111.09 -388.8,-111.09 -318.92,0 -462.25,159.46 -462.25,344.01 0,464.04 772.21,252.62 772.21,596.63 0,123.62 -102.12,222.16 -336.83,222.16 -164.84,0 -324.3,-64.5 -413.88,-152.29l-51.96 102.13c93.17,96.75 277.71,163.04 465.84,163.04z"/>
   <polygon id="3" class="fil1" points="5793.24,14972.55 5925.83,14972.55 5925.83,13718.37 5793.24,13718.37 "/>
   <path id="4" class="fil1" d="M6680.13 14983.3c320.71,0 467.62,-157.67 467.62,-342.21 0,-456.88 -772.21,-249.04 -772.21,-593.05 0,-125.41 102.13,-227.54 331.46,-227.54 111.09,0 236.5,34.04 344,103.92l44.8 -105.71c-100.34,-69.88 -247.26,-111.09 -388.8,-111.09 -318.92,0 -462.25,159.46 -462.25,344.01 0,464.04 772.21,252.62 772.21,596.63 0,123.62 -102.12,222.16 -336.83,222.16 -164.84,0 -324.3,-64.5 -413.88,-152.29l-51.96 102.13c93.17,96.75 277.71,163.04 465.84,163.04z"/>
   <polygon id="5" class="fil1" points="7661.97,14972.55 7794.55,14972.55 7794.55,13833.04 8235.31,13833.04 8235.31,13718.37 7221.22,13718.37 7221.22,13833.04 7661.97,13833.04 "/>
   <path id="6" class="fil1" d="M9321.07 14972.55l139.75 0 -573.34 -1254.18 -130.79 0 -573.34 1254.18 137.96 0 150.5 -335.04 698.76 0 150.5 335.04zm-800.88 -442.54l301 -673.68 301 673.68 -602 0z"/>
   <polygon id="7" class="fil1" points="11331.33,13718.37 10792.03,14648.26 10247.36,13718.37 10138.07,13718.37 10138.07,14972.55 10265.28,14972.55 10265.28,13974.58 10757.99,14813.09 10820.7,14813.09 11313.41,13969.21 11313.41,14972.55 11440.62,14972.55 11440.62,13718.37 "/>
   <path id="8" class="fil1" d="M12786.17 14972.55l139.75 0 -573.34 -1254.18 -130.79 0 -573.34 1254.18 137.96 0 150.5 -335.04 698.76 0 150.5 335.04zm-800.88 -442.54l301 -673.68 301 673.68 -602 0z"/>
   <polygon id="9" class="fil1" points="13314.72,14972.55 13447.3,14972.55 13447.3,13833.04 13888.06,13833.04 13888.06,13718.37 12873.97,13718.37 12873.97,13833.04 13314.72,13833.04 "/>
   <path id="10" class="fil1" d="M15101.02 14972.55l-306.38 -430c182.75,-59.13 286.67,-197.09 286.67,-394.17 0,-268.75 -193.5,-430.01 -512.42,-430.01l-469.42 0 0 1254.18 132.59 0 0 -397.75 336.83 0c35.84,0 68.09,-1.79 100.34,-5.38l286.66 403.13 145.13 0zm-535.71 -510.63l-333.25 0 0 -628.88 333.25 0c250.83,0 383.42,114.67 383.42,315.34 0,197.08 -132.59,313.54 -383.42,313.54z"/>
   <polygon id="11" class="fil1" points="15394.85,14972.55 15527.44,14972.55 15527.44,13718.37 15394.85,13718.37 "/>
   <path id="12" class="fil1" d="M16480.61 14983.3c184.55,0 349.38,-62.71 460.46,-184.54l-84.21 -84.21c-102.12,105.71 -227.54,150.5 -370.87,150.5 -302.8,0 -530.34,-222.17 -530.34,-519.59 0,-297.42 227.54,-519.59 530.34,-519.59 143.33,0 268.75,44.8 370.87,148.71l84.21 -84.2c-111.08,-121.84 -275.91,-182.76 -458.67,-182.76 -378.04,0 -657.54,270.55 -657.54,637.84 0,367.3 279.5,637.84 655.75,637.84z"/>
   <path id="13" class="fil1" d="M17725.83 14983.3c320.71,0 514.21,-186.33 514.21,-546.46l0 -718.47 -129 0 0 713.09c0,297.42 -139.75,433.59 -385.21,433.59 -243.67,0 -383.42,-136.17 -383.42,-433.59l0 -713.09 -132.59 0 0 718.47c0,360.13 195.29,546.46 516.01,546.46z"/>
   <polygon id="14" class="fil1" points="18639.58,14972.55 19474.5,14972.55 19474.5,14857.88 18772.17,14857.88 18772.17,13718.37 18639.58,13718.37 "/>
   <path id="15" class="fil1" d="M20635.51 14972.55l139.75 0 -573.34 -1254.18 -130.79 0 -573.34 1254.18 137.96 0 150.5 -335.04 698.76 0 150.5 335.04zm-800.88 -442.54l301 -673.68 301 673.68 -602 0z"/>
   <path id="16" class="fil1" d="M20983.09 14972.55l510.63 0c401.34,0 671.88,-258 671.88,-627.09 0,-369.08 -270.54,-627.09 -671.88,-627.09l-510.63 0 0 1254.18zm132.59 -114.67l0 -1024.84 370.87 0c333.26,0 548.26,211.42 548.26,512.42 0,301 -215,512.42 -548.26,512.42l-370.87 0z"/>
   <path id="17" class="fil1" d="M23382.15 14972.55l139.75 0 -573.34 -1254.18 -130.79 0 -573.34 1254.18 137.96 0 150.5 -335.04 698.76 0 150.5 335.04zm-800.88 -442.54l301 -673.68 301 673.68 -602 0z"/>
  </g>
 </g>
</svg>
