<?xml version="1.0" encoding="UTF-8"?>
<!DOCTYPE svg PUBLIC "-//W3C//DTD SVG 1.1//EN" "http://www.w3.org/Graphics/SVG/1.1/DTD/svg11.dtd">
<!-- Creator: CorelDRAW 2020 (64-Bit) -->
<svg xmlns="http://www.w3.org/2000/svg" xml:space="preserve" width="297mm" height="210mm" version="1.1" style="shape-rendering:geometricPrecision; text-rendering:geometricPrecision; image-rendering:optimizeQuality; fill-rule:evenodd; clip-rule:evenodd"
viewBox="0 0 29700 21000"
 xmlns:xlink="http://www.w3.org/1999/xlink"
 xmlns:xodm="http://www.corel.com/coreldraw/odm/2003">
 <defs>
  <style type="text/css">
   <![CDATA[
    .fil0 {fill:black}
    .fil1 {fill:black;fill-rule:nonzero}
   ]]>
  </style>
 </defs>
 <g id="Capa_x0020_1">
  <metadata id="CorelCorpID_0Corel-Layer"/>
  <g id="_1467469685104">
   <path class="fil0" d="M3601.22 13124l8.84 -39.81c-76.64,-76.96 -136.48,-119.86 -203.55,-211.27 -214.78,-292.75 -297.05,-584.66 -200.29,-962.75l471.72 -1163.89c308.42,237.75 334.58,534.67 416.52,801.54 141.8,-143.37 284.24,-575.4 349.6,-811.63 107.35,-387.95 81.74,-643.95 71.3,-1046.35 731.63,608.56 1315.3,1625.22 913.59,2691.75 -107.78,286.12 -357.07,656.89 -554.64,741.81l11.22 46.91c1341.02,-270.94 1559.99,-1736.23 1046.05,-2919.06 -278.4,-640.71 -823.79,-1273.32 -1309.43,-1783.56l-697.14 -653.02c-46.89,106.24 -76,275.89 -113.3,393.96 -495.75,1569.45 -1841.69,2641.9 -1279.53,3978.59 80.22,190.7 279.13,455.4 425.93,573.49 174.16,140.07 384.68,258.55 643.11,363.29z"/>
   <polygon class="fil0" points="3610.06,13084.19 3601.22,13124 3656.78,13135.1 "/>
   <path class="fil0" d="M4885.53 13170.31l-11.22 -46.91 -28.54 35.49c4.4,2.92 10.59,9.34 12.17,10.18l27.59 1.24z"/>
  </g>
  <path class="fil1" d="M8335.52 10388.89c133.72,0 241.87,-4.18 324.47,-12.53 82.6,-8.36 148.1,-25.6 196.51,-51.71 48.41,-26.12 85.36,-64.25 110.86,-114.39 25.51,-50.15 49.2,-118.05 71.09,-203.71l115.96 0 -122.66 918.25 -115.96 0c-1.37,-83.58 -9.15,-150.43 -23.34,-200.58 -14.21,-50.14 -42.53,-88.27 -85.01,-114.39 -42.48,-26.11 -102.4,-42.83 -179.78,-50.14 -77.37,-7.31 -181.86,-10.97 -313.49,-10.97l-86.24 645.59c-8.93,66.86 -7.59,123.27 4.03,169.24 11.62,45.96 36.44,83.05 74.46,111.25 38.01,28.21 90.73,48.06 158.15,59.55 67.4,11.49 151.26,17.23 251.54,17.23 119.09,0 221.01,-8.35 305.77,-25.07 84.77,-16.71 157.09,-45.96 217,-87.75 59.9,-41.78 111.24,-97.67 154.02,-167.66 42.78,-70 82.77,-158.27 119.99,-264.82l125.36 0 -146.01 717.67 -2124.81 0 16.75 -125.36c69.21,-2.09 126.47,-8.35 171.74,-18.8 45.27,-10.45 81.07,-28.21 107.4,-53.28 26.33,-25.07 46.75,-60.59 61.25,-106.55 14.49,-45.97 26.62,-105.51 36.39,-178.64l193.41 -1447.88c9.77,-73.12 14,-132.14 12.68,-177.06 -1.3,-44.92 -10.66,-80.44 -28.07,-106.56 -17.4,-26.11 -44.8,-43.87 -82.19,-53.28 -37.4,-9.4 -87.16,-16.19 -149.28,-20.37l16.74 -125.35 1980.65 0 -60.11 614.25 -134.76 0c-0.82,-87.75 -10.96,-160.35 -30.46,-217.81 -19.48,-57.46 -50.94,-103.42 -94.4,-137.89 -43.44,-34.48 -102.39,-58.5 -176.84,-72.08 -74.44,-13.58 -167.03,-20.37 -277.76,-20.37l-354.14 0c-54.32,0 -88.65,6.79 -103.01,20.37 -14.34,13.58 -24.87,45.44 -31.56,95.58l-106.34 796.02z"/>
  <path id="1" class="fil1" d="M10525.52 11238.19c-10.89,81.48 -15.82,145.73 -14.78,192.74 1.03,47.01 11.37,83.05 31,108.12 19.63,25.07 50.9,41.26 93.79,48.57 42.9,7.32 100.92,10.97 174.04,10.97l-16.75 125.36 -1046.73 0 16.75 -125.36c63.23,-4.18 114.21,-10.44 152.94,-18.8 38.71,-8.36 69.16,-25.07 91.3,-50.14 22.17,-25.08 38.99,-61.12 50.49,-108.13 11.51,-47 22.56,-110.21 33.17,-189.6l51.07 -382.34c17.3,-129.54 27.98,-232.96 32.05,-310.26 4.05,-77.3 -1.57,-136.85 -16.88,-178.63 -15.32,-41.79 -41.39,-69.47 -78.23,-83.05 -36.83,-13.58 -86.6,-20.37 -149.28,-20.37l14.66 -109.69 642.28 -115.96 1.99 360.41 12.54 0c71.2,-110.74 157.1,-198.49 257.68,-263.26 100.58,-64.76 202.06,-97.15 304.44,-97.15 79.39,0 141.5,19.85 186.34,59.55 44.84,39.69 63.21,89.84 55.12,150.43 -8.93,66.85 -35.79,123.26 -80.58,169.23 -44.8,45.96 -100.62,68.95 -167.48,68.95 -31.34,0 -58.7,-6.27 -82.1,-18.81 -23.4,-12.53 -43.98,-26.64 -61.73,-42.31 -17.75,-15.67 -35.65,-30.29 -53.69,-43.87 -18.03,-13.58 -37.49,-20.37 -58.38,-20.37 -39.7,0 -80.79,26.11 -123.29,78.35 -42.5,52.23 -81.1,122.22 -115.8,209.97 -25.09,62.68 -48.09,133.19 -69,211.54 -20.91,78.35 -36.53,156.18 -46.86,233.48l-20.09 150.43z"/>
  <path id="2" class="fil1" d="M12086.85 11209.98c-11.17,83.58 -16.96,150.43 -17.4,200.58 -0.42,50.14 6.95,88.79 22.12,115.95 15.19,27.16 39.9,45.44 74.16,54.85 34.26,9.4 81.55,15.14 141.87,17.23l-16.75 125.36 -987.2 0 16.75 -125.36c58.77,-2.09 107.22,-8.88 145.32,-20.37 38.09,-11.49 68.81,-30.29 92.14,-56.41 23.34,-26.12 41.81,-62.68 55.4,-109.69 13.59,-47.01 25.27,-107.07 35.04,-180.2l51.49 -385.47c16.19,-121.18 27.43,-220.95 33.72,-299.29 6.28,-78.35 8.25,-132.15 5.89,-161.4 -3.47,-52.23 -22.37,-86.71 -56.71,-103.42 -34.32,-16.72 -99.54,-25.07 -195.65,-25.07l14.24 -106.56 742.98 -119.09 -157.41 1178.36zm-214.53 -1842.75c9.21,-68.95 40.46,-126.93 93.75,-173.94 53.29,-47.01 113.36,-70.51 180.22,-70.51 68.94,0 123.78,23.5 164.51,70.51 40.73,47.01 56.49,104.99 47.28,173.94 -8.93,66.85 -40.04,123.79 -93.33,170.8 -53.29,47.01 -114.41,70.51 -183.35,70.51 -66.86,0 -120.65,-23.5 -161.38,-70.51 -40.73,-47.01 -56.63,-103.95 -47.7,-170.8z"/>
  <path id="3" class="fil1" d="M14033.59 11463.83c-91.11,87.75 -198.91,155.66 -323.37,203.71 -124.46,48.05 -255.64,72.08 -393.53,72.08 -127.45,0 -240.69,-20.37 -339.71,-61.11 -99.03,-40.74 -181.26,-97.68 -246.7,-170.8 -65.46,-73.13 -111.63,-161.4 -138.56,-264.82 -26.93,-103.42 -32.02,-217.81 -15.28,-343.17 17.31,-129.53 55.02,-247.58 113.13,-354.13 58.1,-106.56 131.95,-197.96 221.53,-274.22 89.58,-76.26 192.52,-135.28 308.84,-177.07 116.31,-41.78 241.33,-62.68 375.05,-62.68 94.02,0 179.98,9.4 257.91,28.21 77.93,18.8 143.39,44.92 196.37,78.35 53,33.43 93.2,72.6 120.63,117.52 27.43,44.92 37.65,93.5 30.68,145.73 -8.1,60.59 -31.76,108.64 -70.97,144.16 -39.22,35.52 -88.08,53.28 -146.58,53.28 -48.05,0 -88.68,-12.54 -121.89,-37.61 -33.23,-25.07 -63.82,-65.81 -91.8,-122.23 -24.64,-50.14 -45.98,-89.83 -64.01,-119.08 -18.03,-29.26 -35.4,-51.71 -52.11,-67.38 -16.72,-15.67 -34.12,-26.12 -52.22,-31.34 -18.11,-5.23 -40.75,-7.84 -67.91,-7.84 -121.18,0 -222.73,56.41 -304.65,169.23 -81.93,112.83 -136.44,270.57 -163.51,473.23 -29.02,217.29 -11.13,384.43 53.68,501.43 64.8,117 172.43,175.5 322.86,175.5 85.66,0 173.48,-16.19 263.47,-48.58 89.98,-32.38 177.67,-78.87 263.08,-139.46l65.57 119.09z"/>
  <path id="4" class="fil1" d="M15309.05 10830.78c-186.11,79.39 -328.09,153.04 -425.96,220.94 -97.86,67.9 -151.68,138.42 -161.45,211.54 -8.09,60.59 2.2,108.64 30.88,144.16 28.69,35.52 68.11,53.28 118.25,53.28 50.14,0 98.33,-8.88 144.58,-26.64 46.25,-17.76 87,-41.26 122.24,-70.51 35.25,-29.25 64.48,-64.25 87.68,-104.99 23.2,-40.74 37.87,-84.09 44.01,-130.06l39.77 -297.72zm22.19 -166.1l17.58 -131.63c16.19,-121.18 6.56,-209.45 -28.87,-264.81 -35.44,-55.37 -98.08,-83.05 -187.92,-83.05 -60.59,0 -108.71,16.19 -144.38,48.57 -35.66,32.39 -72.1,86.19 -109.31,161.4 -25.77,52.23 -57.86,92.97 -96.23,122.22 -38.39,29.25 -87.87,43.88 -148.46,43.88 -58.5,0 -101.05,-17.76 -127.65,-53.28 -26.59,-35.52 -35.56,-85.66 -26.91,-150.43 13.39,-100.28 78.85,-179.68 196.34,-238.18 117.51,-58.5 287,-87.75 508.46,-87.75 234,0 395.49,42.31 484.47,126.93 88.99,84.61 120.22,226.16 93.7,424.65l-91.68 686.33c-23.72,177.59 -0.06,266.38 70.98,266.38 39.69,0 78.07,-13.58 115.12,-40.74l34.87 90.89c-36.23,52.23 -87.18,93.49 -152.86,123.79 -65.68,30.29 -137.18,45.44 -214.48,45.44 -96.11,0 -165.32,-29.25 -207.65,-87.75 -42.33,-58.5 -56.38,-141.03 -42.14,-247.58l-15.67 0c-75.1,108.64 -164.48,191.17 -268.11,247.58 -103.65,56.41 -217.11,84.62 -340.38,84.62 -131.62,0 -232.17,-37.09 -301.67,-111.26 -69.48,-74.17 -96.27,-170.8 -80.36,-289.89 12.28,-91.93 64.54,-178.11 156.77,-258.55 92.22,-80.44 238.56,-159.31 439.01,-236.61l467.43 -191.17z"/>
  <path id="5" class="fil1" d="M18286.45 10993.74l-886.9 0c-127.78,221.47 -197.39,375.03 -208.84,460.69 -8.37,62.68 9.84,102.38 54.61,119.09 44.78,16.72 114.18,25.07 208.2,25.07l-16.75 125.36 -858.7 0 16.75 -125.36c50.97,-6.27 95.44,-14.62 133.4,-25.07 37.96,-10.45 72.29,-25.07 103.01,-43.87 30.72,-18.81 58.55,-43.36 83.49,-73.65 24.94,-30.3 49.74,-67.38 74.41,-111.26l1100.11 -2065.26 231.91 0 504.52 1830.22c29.65,106.55 55.57,190.12 77.77,250.71 22.2,60.59 48.37,107.08 78.52,139.46 30.15,32.39 66.85,54.85 110.09,67.38 43.25,12.54 99.97,21.94 170.16,28.21l-17.16 128.49 -1184.63 0 17.16 -128.49c100.85,-4.18 174.33,-14.63 220.43,-31.34 46.11,-16.72 72.52,-50.14 79.22,-100.29 3.9,-29.25 1.61,-66.85 -6.87,-112.82 -8.49,-45.96 -20.8,-102.37 -36.95,-169.23l-46.96 -188.04zm-789.7 -188.03l745.88 0 -233.56 -949.59 -12.53 0 -499.79 949.59z"/>
  <path id="6" class="fil1" d="M19463.07 10467.24c-14.88,-60.59 -30.33,-109.17 -46.34,-145.73 -16.01,-36.56 -33.66,-64.77 -52.95,-84.61 -19.28,-19.85 -41.57,-32.91 -66.84,-39.18 -25.28,-6.27 -55.68,-9.4 -91.2,-9.4l16.75 -125.36 937.05 0 -16.75 125.36c-52.24,0 -93.78,2.09 -124.63,6.27 -30.85,4.18 -54.67,10.44 -71.46,18.8 -16.78,8.36 -28.18,19.33 -34.16,32.91 -6,13.58 -10.11,28.73 -12.34,45.44 -3.63,27.16 -2.6,58.5 3.11,94.02 5.69,35.52 13.49,71.03 23.37,106.55l188.04 821.09 12.53 0 444.61 -817.95c19.36,-35.52 35.11,-67.38 47.24,-95.59 12.12,-28.2 19.72,-53.8 22.79,-76.78 6.14,-45.97 -5.06,-79.39 -33.61,-100.29 -28.55,-20.89 -82.39,-32.38 -161.5,-34.47l16.75 -125.36 692.6 0 -16.75 125.36c-56.41,0 -106.94,14.62 -151.59,43.87 -44.64,29.25 -95.61,94.02 -152.87,194.31l-763.56 1328.79 -285.19 0 -323.1 -1288.05z"/>
  <path id="7" class="fil1" d="M22090.9 10830.78c-186.11,79.39 -328.09,153.04 -425.96,220.94 -97.86,67.9 -151.68,138.42 -161.45,211.54 -8.09,60.59 2.2,108.64 30.88,144.16 28.69,35.52 68.11,53.28 118.25,53.28 50.14,0 98.33,-8.88 144.58,-26.64 46.25,-17.76 87,-41.26 122.24,-70.51 35.25,-29.25 64.48,-64.25 87.68,-104.99 23.2,-40.74 37.87,-84.09 44.01,-130.06l39.77 -297.72zm22.19 -166.1l17.58 -131.63c16.19,-121.18 6.56,-209.45 -28.87,-264.81 -35.44,-55.37 -98.08,-83.05 -187.92,-83.05 -60.59,0 -108.71,16.19 -144.38,48.57 -35.66,32.39 -72.1,86.19 -109.31,161.4 -25.77,52.23 -57.86,92.97 -96.23,122.22 -38.39,29.25 -87.87,43.88 -148.46,43.88 -58.5,0 -101.05,-17.76 -127.65,-53.28 -26.59,-35.52 -35.56,-85.66 -26.91,-150.43 13.39,-100.28 78.85,-179.68 196.34,-238.18 117.51,-58.5 287,-87.75 508.46,-87.75 234,0 395.49,42.31 484.47,126.93 88.99,84.61 120.22,226.16 93.7,424.65l-91.68 686.33c-23.72,177.59 -0.06,266.38 70.98,266.38 39.69,0 78.07,-13.58 115.12,-40.74l34.87 90.89c-36.23,52.23 -87.18,93.49 -152.86,123.79 -65.68,30.29 -137.18,45.44 -214.48,45.44 -96.11,0 -165.32,-29.25 -207.65,-87.75 -42.33,-58.5 -56.38,-141.03 -42.14,-247.58l-15.67 0c-75.1,108.64 -164.48,191.17 -268.11,247.58 -103.65,56.41 -217.11,84.62 -340.38,84.62 -131.62,0 -232.17,-37.09 -301.67,-111.26 -69.48,-74.17 -96.27,-170.8 -80.36,-289.89 12.28,-91.93 64.54,-178.11 156.77,-258.55 92.22,-80.44 238.56,-159.31 439.01,-236.61l467.43 -191.17z"/>
  <path id="8" class="fil1" d="M23535.13 11209.98c-11.17,83.58 -16.96,150.43 -17.4,200.58 -0.42,50.14 6.95,88.79 22.12,115.95 15.19,27.16 39.9,45.44 74.16,54.85 34.26,9.4 81.55,15.14 141.87,17.23l-16.75 125.36 -987.2 0 16.75 -125.36c58.78,-2.09 107.22,-8.88 145.32,-20.37 38.09,-11.49 68.81,-30.29 92.15,-56.41 23.33,-26.12 41.8,-62.68 55.39,-109.69 13.59,-47.01 25.28,-107.07 35.05,-180.2l172.9 -1294.32c16.18,-121.17 27.42,-220.94 33.71,-299.29 6.28,-78.35 8.25,-132.14 5.88,-161.39 -3.47,-52.24 -22.36,-86.71 -56.7,-103.42 -34.33,-16.72 -99.54,-25.08 -195.65,-25.08l14.23 -106.55 742.98 -119.09 -278.81 2087.2z"/>
  <path id="9" class="fil1" d="M25058.94 10031.62c125.36,0 241.06,21.42 347.11,64.25 106.06,42.83 196.38,101.85 270.94,177.07 74.57,75.21 129.5,164.53 164.79,267.95 35.28,103.42 44.68,216.76 28.21,340.03 -17.02,127.45 -57.19,244.45 -120.52,351 -63.34,106.56 -142.48,198.48 -237.42,275.79 -94.94,77.3 -201.23,137.89 -318.88,181.77 -117.63,43.87 -239.13,65.81 -364.49,65.81 -123.27,0 -237.41,-21.42 -342.41,-64.25 -105.01,-42.83 -194.14,-102.89 -267.39,-180.2 -73.25,-77.3 -126.71,-169.75 -160.38,-277.35 -33.69,-107.6 -42.01,-225.12 -24.99,-352.57 16.47,-123.27 55.7,-237.13 117.72,-341.6 62,-104.46 139.81,-194.3 233.43,-269.52 93.63,-75.21 198.59,-133.71 314.9,-175.5 116.31,-41.78 236.11,-62.68 359.38,-62.68zm-24.29 181.77c-62.68,0 -122.29,16.19 -178.84,48.58 -56.57,32.38 -107.03,77.82 -151.41,136.32 -44.38,58.5 -82.01,129.02 -112.87,211.54 -30.88,82.53 -53.02,173.94 -66.41,274.22 -13.96,104.47 -16.59,198.49 -7.9,282.06 8.67,83.57 27.39,154.61 56.14,213.11 28.76,58.5 66.56,103.94 113.42,136.32 46.86,32.39 102.67,48.58 167.44,48.58 64.77,0 125.95,-16.19 183.56,-48.58 57.61,-32.38 109.19,-78.35 154.75,-137.89 45.55,-59.55 84.36,-131.1 116.43,-214.68 32.05,-83.57 54.92,-176.54 68.6,-278.92 13.39,-100.28 15.08,-191.17 5.08,-272.65 -10.02,-81.48 -29.85,-151.99 -59.49,-211.54 -29.66,-59.54 -68.96,-105.51 -117.91,-137.89 -48.96,-32.39 -105.82,-48.58 -170.59,-48.58z"/>
  <path id="10" class="fil1" d="M26139.72 11723.95l-97.15 0 76.19 -570.38 131.63 0c15.43,150.43 51.96,260.12 109.6,329.07 57.66,68.94 139.75,103.42 246.31,103.42 77.3,0 139.53,-16.2 186.69,-48.58 47.15,-32.38 74.51,-76.78 82.04,-133.19 7.82,-58.5 -10.7,-115.44 -55.53,-170.8 -44.85,-55.37 -121.57,-114.39 -230.2,-177.07 -147.35,-85.66 -249.83,-170.8 -307.48,-255.42 -57.65,-84.61 -79.35,-180.2 -65.12,-286.75 9.22,-68.95 30.86,-133.19 64.92,-192.74 34.08,-59.54 76.5,-111.25 127.28,-155.13 50.78,-43.87 109.12,-77.82 175,-101.85 65.89,-24.03 135.4,-36.04 208.52,-36.04 64.77,0 127.76,9.4 188.98,28.2 61.2,18.81 113.61,44.92 157.19,78.35l66.46 -75.21 81.49 0 -63.22 473.22 -122.23 0c-32.14,-119.09 -70.32,-204.75 -114.53,-256.98 -44.21,-52.23 -102.87,-78.35 -176,-78.35 -58.5,0 -107.09,15.67 -145.74,47.01 -38.66,31.34 -61.48,73.13 -68.46,125.36 -7.81,58.5 10.39,113.86 54.59,166.1 44.22,52.23 121.68,109.68 232.4,172.36 77.43,45.97 143.51,90.89 198.24,134.76 54.73,43.88 97.9,88.28 129.5,133.2 31.6,44.92 53.02,91.92 64.22,141.02 11.19,49.1 13.02,101.86 5.48,158.27 -9.76,73.12 -32.13,138.93 -67.11,197.43 -34.97,58.51 -80.32,108.65 -136.04,150.43 -55.74,41.79 -120.12,74.17 -193.18,97.16 -73.07,22.98 -152.43,34.47 -238.09,34.47 -89.84,0 -171.8,-12.01 -245.9,-36.04 -74.09,-24.03 -133.15,-59.02 -177.15,-104.99l-83.6 109.69z"/>
  <path class="fil1" d="M8269.1 13037.26c-69.52,50.21 -149.34,69.52 -235.59,69.52 -221.43,0 -384.93,-159.64 -384.93,-373.34 0,-215 163.5,-373.34 386.22,-373.34 105.56,0 195.68,30.89 271.63,105.56l59.22 -60.5c-79.81,-86.26 -198.25,-130.03 -334.72,-130.03 -275.49,0 -476.33,194.39 -476.33,458.31 0,263.91 200.84,458.3 475.05,458.3 124.87,0 245.89,-38.62 330.85,-114.57l0 -343.73 -91.4 0 0 303.82z"/>
  <path id="1" class="fil1" d="M9302.86 13184.02l100.42 0 -411.96 -901.17 -93.98 0 -411.97 901.17 99.13 0 108.14 -240.74 502.08 0 108.14 240.74zm-575.46 -317.98l216.28 -484.06 216.28 484.06 -432.56 0z"/>
  <path id="2" class="fil1" d="M9801.08 13191.74c230.44,0 336,-113.29 336,-245.89 0,-328.28 -554.86,-178.94 -554.86,-426.12 0,-90.11 73.38,-163.5 238.17,-163.5 79.81,0 169.93,24.46 247.17,74.67l32.19 -75.95c-72.1,-50.21 -177.66,-79.82 -279.36,-79.82 -229.16,0 -332.15,114.58 -332.15,247.18 0,333.43 554.86,181.52 554.86,428.69 0,88.83 -73.38,159.64 -242.02,159.64 -118.44,0 -233.02,-46.35 -297.39,-109.43l-37.33 73.38c66.94,69.52 199.54,117.15 334.72,117.15z"/>
  <polygon id="3" class="fil1" points="10344.35,13184.02 10439.62,13184.02 10439.62,12282.85 10344.35,12282.85 "/>
  <path id="4" class="fil1" d="M10981.61 13191.74c230.44,0 336,-113.29 336,-245.89 0,-328.28 -554.86,-178.94 -554.86,-426.12 0,-90.11 73.38,-163.5 238.17,-163.5 79.81,0 169.93,24.46 247.17,74.67l32.19 -75.95c-72.1,-50.21 -177.66,-79.82 -279.36,-79.82 -229.16,0 -332.15,114.58 -332.15,247.18 0,333.43 554.86,181.52 554.86,428.69 0,88.83 -73.38,159.64 -242.02,159.64 -118.44,0 -233.02,-46.35 -297.39,-109.43l-37.33 73.38c66.94,69.52 199.54,117.15 334.72,117.15z"/>
  <polygon id="5" class="fil1" points="11687.08,13184.02 11782.35,13184.02 11782.35,12365.25 12099.05,12365.25 12099.05,12282.85 11370.39,12282.85 11370.39,12365.25 11687.08,12365.25 "/>
  <path id="6" class="fil1" d="M12879.2 13184.02l100.42 0 -411.96 -901.17 -93.98 0 -411.97 901.17 99.13 0 108.14 -240.74 502.08 0 108.14 240.74zm-575.46 -317.98l216.28 -484.06 216.28 484.06 -432.56 0z"/>
  <polygon id="7" class="fil1" points="14323.64,12282.85 13936.13,12951 13544.77,12282.85 13466.24,12282.85 13466.24,13184.02 13557.65,13184.02 13557.65,12466.95 13911.67,13069.44 13956.73,13069.44 14310.76,12463.09 14310.76,13184.02 14402.17,13184.02 14402.17,12282.85 "/>
  <path id="8" class="fil1" d="M15368.99 13184.02l100.42 0 -411.96 -901.17 -93.98 0 -411.97 901.17 99.13 0 108.14 -240.74 502.08 0 108.14 240.74zm-575.46 -317.98l216.28 -484.06 216.28 484.06 -432.56 0z"/>
  <polygon id="9" class="fil1" points="15748.76,13184.02 15844.03,13184.02 15844.03,12365.25 16160.73,12365.25 16160.73,12282.85 15432.07,12282.85 15432.07,12365.25 15748.76,12365.25 "/>
  <path id="10" class="fil1" d="M17032.29 13184.02l-220.15 -308.97c131.32,-42.48 205.99,-141.61 205.99,-283.22 0,-193.11 -139.04,-308.98 -368.2,-308.98l-337.29 0 0 901.17 95.27 0 0 -285.8 242.02 0c25.75,0 48.93,-1.29 72.1,-3.86l205.98 289.66 104.28 0zm-384.93 -366.9l-239.45 0 0 -451.87 239.45 0c180.23,0 275.5,82.39 275.5,226.58 0,141.61 -95.27,225.29 -275.5,225.29z"/>
  <polygon id="11" class="fil1" points="17243.42,13184.02 17338.69,13184.02 17338.69,12282.85 17243.42,12282.85 "/>
  <path id="12" class="fil1" d="M18023.57 13191.74c132.6,0 251.04,-45.05 330.86,-132.6l-60.51 -60.5c-73.38,75.95 -163.49,108.14 -266.48,108.14 -217.57,0 -381.07,-159.64 -381.07,-373.34 0,-213.71 163.5,-373.34 381.07,-373.34 102.99,0 193.1,32.18 266.48,106.85l60.51 -60.51c-79.82,-87.54 -198.26,-131.31 -329.57,-131.31 -271.63,0 -472.47,194.39 -472.47,458.31 0,263.91 200.84,458.3 471.18,458.3z"/>
  <path id="13" class="fil1" d="M18918.3 13191.74c230.44,0 369.48,-133.88 369.48,-392.65l0 -516.24 -92.69 0 0 512.38c0,213.71 -100.42,311.55 -276.79,311.55 -175.08,0 -275.5,-97.84 -275.5,-311.55l0 -512.38 -95.26 0 0 516.24c0,258.77 140.32,392.65 370.76,392.65z"/>
  <polygon id="14" class="fil1" points="19574.86,13184.02 20174.78,13184.02 20174.78,13101.63 19670.13,13101.63 19670.13,12282.85 19574.86,12282.85 "/>
  <path id="15" class="fil1" d="M21009 13184.02l100.42 0 -411.96 -901.17 -93.98 0 -411.97 901.17 99.13 0 108.14 -240.74 502.08 0 108.14 240.74zm-575.46 -317.98l216.28 -484.06 216.28 484.06 -432.56 0z"/>
  <path id="16" class="fil1" d="M21258.75 13184.02l366.9 0c288.38,0 482.77,-185.38 482.77,-450.58 0,-265.2 -194.39,-450.59 -482.77,-450.59l-366.9 0 0 901.17zm95.27 -82.39l0 -736.38 266.49 0c239.45,0 393.93,151.91 393.93,368.19 0,216.28 -154.48,368.19 -393.93,368.19l-266.49 0z"/>
  <path id="17" class="fil1" d="M22982.55 13184.02l100.42 0 -411.96 -901.17 -93.98 0 -411.97 901.17 99.13 0 108.14 -240.74 502.08 0 108.14 240.74zm-575.46 -317.98l216.28 -484.06 216.28 484.06 -432.56 0z"/>
 </g>
</svg>
